<?xml version="1.0" encoding="utf-8"?><svg viewBox="0 0 512 512" xmlns="http://www.w3.org/2000/svg" xmlns:xlink="http://www.w3.org/1999/xlink"><style>:root>svg{display:none}:root>svg:target{display:block}</style><svg viewBox="0 0 409.294 409.294" id="quote" xmlns="http://www.w3.org/2000/svg"><path d="M233.882 29.235v175.412h116.941c0 64.48-52.461 116.941-116.941 116.941v58.471c96.728 0 175.412-78.684 175.412-175.412V29.235zM0 204.647h116.941c0 64.48-52.461 116.941-116.941 116.941v58.471c96.728 0 175.412-78.684 175.412-175.412V29.235H0z" data-original="#000000" class="aactive-path" data-old_color="#000000" fill="#FFF"/></svg><svg viewBox="0 0 512.011 512.011" id="select" xmlns="http://www.w3.org/2000/svg"><path d="M505.755 123.592c-8.341-8.341-21.824-8.341-30.165 0L256.005 343.176 36.421 123.592c-8.341-8.341-21.824-8.341-30.165 0s-8.341 21.824 0 30.165l234.667 234.667a21.275 21.275 0 0015.083 6.251 21.275 21.275 0 0015.083-6.251l234.667-234.667c8.34-8.341 8.34-21.824-.001-30.165z" data-original="#000000" class="bactive-path" data-old_color="#000000" fill="#6B6A6A"/></svg><svg viewBox="0 0 512.001 512.001" id="signs" xmlns="http://www.w3.org/2000/svg"><path d="M284.286 256.002L506.143 34.144c7.811-7.811 7.811-20.475 0-28.285-7.811-7.81-20.475-7.811-28.285 0L256 227.717 34.143 5.859c-7.811-7.811-20.475-7.811-28.285 0-7.81 7.811-7.811 20.475 0 28.285l221.857 221.857L5.858 477.859c-7.811 7.811-7.811 20.475 0 28.285a19.938 19.938 0 0014.143 5.857 19.94 19.94 0 0014.143-5.857L256 284.287l221.857 221.857c3.905 3.905 9.024 5.857 14.143 5.857s10.237-1.952 14.143-5.857c7.811-7.811 7.811-20.475 0-28.285L284.286 256.002z"/></svg></svg>